<?xml version="1.0"?>
<svg xmlns="http://www.w3.org/2000/svg" xmlns:xlink="http://www.w3.org/1999/xlink" version="1.1" id="Capa_1" x="0px" y="0px" viewBox="0 0 508 508" style="enable-background:new 0 0 508 508;" xml:space="preserve" width="512px" height="512px" class=""><g><g>
	<g>
		<path d="M189.6,86.55c-0.8-6.2-3.4-11.1-7.6-14.8c-4.1-3.6-11.3-6.4-21.6-8.5l-0.4-17.7c3.8,1.2,6.3,3.5,7.4,6.9l15.1-1.5    c-1.5-4.3-4.2-7.6-8.1-10c-3.7-2.4-8.6-3.8-14.5-4.3l-0.1-3.7h-8l-0.1,3.7c-6.4,0.4-11.7,2.1-15.9,5.1c-4.3,3-6.8,6.9-7.4,11.7    c-0.6,5,0.8,9.4,4.3,13.1c3.6,3.9,9.7,6.8,18.2,8.8l-0.5,25c-2.4-1.1-4.8-2.9-6.8-5.4c-2-2.4-3.2-5.2-3.8-8.4l-18.3,1.7    c0.4,8.1,2.9,14.8,7.8,19.7c5,5.1,12,8.2,21,9.2l-0.3,14.1h11.8l-0.3-14.5c10-1.4,17.5-5,22.5-10.8    C188.8,100.45,190.6,93.85,189.6,86.55z M151.3,60.95c-2.7-1-4.6-2.1-5.9-3.5c-1.2-1.4-1.8-2.9-1.7-4.5c0.1-1.7,0.9-3.3,2.3-4.6    c1.4-1.4,3.3-2.3,5.6-2.9L151.3,60.95z M169.8,96.85c-2.2,2.4-5.1,3.9-8.7,4.5l-0.5-23.6c4.2,1,7.1,2.3,9,4.2    c1.9,1.9,3,4.1,3.1,6.8C172.9,91.75,172,94.45,169.8,96.85z" data-original="#000000" class="active-path" data-old_color="#000000" fill="#fff"/>
	</g>
</g><g>
	<g>
		<path d="M508,386.95v-69l-35.7-8.9c-1.3-3.5-2.8-7.1-4.5-10.6l19-31.6l-48.8-48.8l-31.6,19c-3.5-1.7-7.1-3.2-10.6-4.5l-8.9-35.7    h-69l-6.5,25.9v-75v-73.9h-0.8c-7.6-41.9-72.9-73.7-154.9-73.7C68.4,0.15,0,36.15,0,82.05v73.7c0,0.1,0,0.1,0,0.2v73.6v73.7v73.7    c0,45.9,68.4,81.9,155.7,81.9c25.6,0,50.7-3.4,73.3-9.7l37.6,37.6l31.6-19c3.5,1.7,7.1,3.2,10.6,4.4l8.9,35.7h69l8.9-35.7    c3.5-1.3,7.1-2.8,10.6-4.4l31.6,19l48.8-48.8l-19-31.6c1.7-3.5,3.2-7.1,4.5-10.6L508,386.95z M155.7,16.55    c75.5,0,139.3,30,139.3,65.5s-63.8,65.5-139.3,65.5s-139.3-30-139.3-65.5S80.2,16.55,155.7,16.55z M16.4,155.85v-36.7    c25.3,26.8,77.5,44.9,139.3,44.9s114-18.1,139.3-44.9v36.7c0,35.5-63.8,65.5-139.3,65.5c-75.4,0-139.1-29.9-139.3-65.4V155.85z     M16.3,193.05c25.4,26.6,77.6,44.7,139.4,44.7s114-18.1,139.3-45v28.6v8.4c0,1.6-0.2,3.3-0.5,5l-27.9-16.7l-48.8,48.8l10.9,18.3    c-22.1,6.6-47.1,10.1-73.1,10.1c-75.5,0-139.3-30-139.3-65.5V193.05z M236.3,299.65c-1.4,3.1-2.8,6.3-3.9,9.4l-35.7,8.9v47.8    c-13.5,2-27.2,3-41,3c-75.5,0-139.3-30-139.3-65.5v-36.7c25.3,26.9,77.5,45,139.3,45C184.4,311.55,212,307.35,236.3,299.65z     M219.8,434.85c-19.9,5-41.8,7.6-64.1,7.6c-75.5,0.2-139.3-29.9-139.3-65.4v-36.7c25.3,26.8,77.5,44.9,139.3,44.9    c13.7,0,27.5-1,41-2.9v4.6l35.7,8.9c1.3,3.6,2.8,7.1,4.5,10.6L219.8,434.85z M466.2,435.65l-30.7,30.7l-28.4-17l-4,2.1    c-5.5,2.8-11.2,5.2-16.7,7l-4.3,1.4l-8,32h-43.4l-8-32l-4.3-1.4c-5.5-1.8-11.1-4.1-16.7-7l-4.1-2.1l-28.4,17l-22.2-22.2l-8.5-8.5    l17-28.4l-2.1-4c-2.8-5.5-5.2-11.1-7-16.7l-1.4-4.3l-32.1-8v-43.4l32.1-8l1.4-4.3c1.8-5.5,4.1-11.1,7-16.7l2.1-4l-3.1-5.2    l-13.9-23.2l30.7-30.7l24.5,14.7l3.9,2.3l0.5-0.3l5.4-2.7c1.5-0.8,3.1-1.5,4.6-2.1l1.9-0.9c2.7-1.1,5.5-2.2,8.2-3l4.3-1.4l8-32.1    H374l8,32.1l4.3,1.4c5.5,1.8,11.1,4.1,16.6,7l4.1,2.1l28.4-17l30.7,30.7l-17,28.4l2.1,4c2.8,5.5,5.2,11.1,7,16.7l1.4,4.3l32.1,8    v43.2l-32.1,8l-1.4,4.3c-1.8,5.5-4.1,11.1-7,16.7l-2.1,4L466.2,435.65z" data-original="#000000" class="active-path" data-old_color="#000000" fill="#fff"/>
	</g>
</g><g>
	<g>
		<path d="M352.3,270.55c-45.2,0-81.9,36.8-81.9,81.9c0,45.2,36.8,81.9,81.9,81.9c45.1,0,81.9-36.8,81.9-81.9    C434.3,307.25,397.5,270.55,352.3,270.55z M352.3,418.05c-36.1,0-65.5-29.4-65.5-65.5c0-36.1,29.4-65.5,65.5-65.5    c36.1,0,65.5,29.4,65.5,65.5C417.9,388.65,388.5,418.05,352.3,418.05z" data-original="#000000" class="active-path" data-old_color="#000000" fill="#fff"/>
	</g>
</g><g>
	<g>
		<rect x="343" y="458.95" width="17.6" height="16.4" data-original="#000000" class="active-path" data-old_color="#000000" fill="#fff"/>
	</g>
</g><g>
	<g>
		<rect x="343" y="229.55" width="17.6" height="16.4" data-original="#000000" class="active-path" data-old_color="#000000" fill="#fff"/>
	</g>
</g><g>
	<g>
		<rect x="228.8" y="343.65" width="16.4" height="17.6" data-original="#000000" class="active-path" data-old_color="#000000" fill="#fff"/>
	</g>
</g><g>
	<g>
		<rect x="458.3" y="343.65" width="16.4" height="17.6" data-original="#000000" class="active-path" data-old_color="#000000" fill="#fff"/>
	</g>
</g><g>
	<g>
		<rect x="262.416" y="424.833" transform="matrix(0.7071 -0.7071 0.7071 0.7071 -227.3634 318.3626)" width="16.4" height="17.6" data-original="#000000" class="active-path" data-old_color="#000000" fill="#fff"/>
	</g>
</g><g>
	<g>
		<rect x="424.582" y="262.543" transform="matrix(0.7071 -0.7071 0.7071 0.7071 -65.1093 385.4974)" width="16.4" height="17.6" data-original="#000000" class="active-path" data-old_color="#000000" fill="#fff"/>
	</g>
</g><g>
	<g>
		<rect x="261.806" y="263.135" transform="matrix(0.7071 -0.7071 0.7071 0.7071 -112.6044 270.8194)" width="17.6" height="16.4" data-original="#000000" class="active-path" data-old_color="#000000" fill="#fff"/>
	</g>
</g><g>
	<g>
		<rect x="424.054" y="425.3" transform="matrix(0.7071 -0.7071 0.7071 0.7071 -179.7509 433.0435)" width="17.6" height="16.4" data-original="#000000" class="active-path" data-old_color="#000000" fill="#fff"/>
	</g>
</g></g> </svg>
