<?xml version="1.0"?>
<svg xmlns="http://www.w3.org/2000/svg" xmlns:xlink="http://www.w3.org/1999/xlink" version="1.1" id="Capa_1" x="0px" y="0px" viewBox="0 0 512 512" style="enable-background:new 0 0 512 512;" xml:space="preserve" width="512px" height="512px"><g><g>
	<g>
		<path d="M300.142,384.543c11.927-15.091,14.175-36.549,3.987-54.195l-31.517-54.588c-6.458-11.185-16.884-19.186-29.359-22.527    c-12.475-3.343-25.505-1.628-36.688,4.831l-13.115,7.57c-1.568,0.907-3.062,0.704-3.813,0.502    c-0.751-0.201-2.146-0.772-3.051-2.341l-60.344-104.518c-1.385-2.399-0.56-5.479,1.84-6.865l13.114-7.57    c23.087-13.331,31.027-42.96,17.697-66.048l-31.517-54.588C120.918,13.02,110.492,5.02,98.018,1.678    c-12.473-3.342-25.503-1.63-36.689,4.829C32.98,22.873,12.701,49.301,4.229,80.921c-8.472,31.62-4.125,64.645,12.243,92.995    l102.55,177.622c16.368,28.349,42.796,48.629,74.415,57.101c10.558,2.829,21.273,4.229,31.919,4.229    c9.956,0,19.849-1.24,29.498-3.665l7.445,12.897c3.19,5.524,8.996,8.615,14.959,8.615c2.216,0,4.453-0.429,6.586-1.317    c0.799,2.14,0.137,4.061-0.269,4.917c-0.523,1.106-2.136,3.681-5.811,3.681h-51.244c-5.523,0-9.999,4.478-9.999,9.999    s4.477,9.999,9.999,9.999h51.244c10.324,0,19.479-5.799,23.891-15.133c3.599-7.614,3.374-16.172-0.386-23.397    c3.649-2.321,6.272-5.856,7.398-10.059c1.192-4.448,0.58-9.094-1.723-13.081L300.142,384.543z M278.237,409.711l-4.104-7.108    c3.517-1.541,6.979-3.255,10.376-5.139l3.735,6.47L278.237,409.711z M276.436,379.077c-23.723,13.695-51.36,17.336-77.82,10.245    c-26.459-7.091-48.575-24.06-62.272-47.784L33.791,163.917c-13.696-23.722-17.335-51.359-10.245-77.82    s24.059-48.576,47.783-62.272c4.369-2.522,9.216-3.811,14.13-3.811c2.463,0,4.942,0.324,7.384,0.979    c7.315,1.96,13.429,6.651,17.216,13.21l31.517,54.588c6.839,11.845,4.13,26.627-5.723,35.375L96.309,55.676    c-2.761-4.783-8.877-6.422-13.659-3.66c-4.783,2.762-6.422,8.876-3.66,13.659l39.832,68.991l-0.738,0.426    c-11.949,6.899-16.059,22.233-9.159,34.184l60.344,104.518c3.342,5.789,8.738,9.929,15.195,11.659    c5.526,1.479,11.259,1.038,16.426-1.214l38.026,65.863c1.852,3.208,5.213,5.002,8.668,5.002c1.696,0,3.416-0.433,4.991-1.342    c4.783-2.762,6.422-8.876,3.66-13.659l-37.904-65.651c6.143-3.003,13.08-3.69,19.75-1.903c7.315,1.96,13.429,6.651,17.216,13.21    l31.517,54.588C294.629,353.886,289.975,371.261,276.436,379.077z" data-original="#000000" class="active-path" data-old_color="#000000" fill="#0072d4"/>
	</g>
</g><g>
	<g>
		<path d="M193.092,440.924c-1.86-1.861-4.44-2.93-7.07-2.93s-5.21,1.07-7.069,2.93c-1.86,1.86-2.93,4.44-2.93,7.07    c0,2.639,1.07,5.21,2.93,7.069c1.86,1.87,4.44,2.931,7.069,2.931c2.629,0,5.21-1.061,7.07-2.931c1.86-1.859,2.93-4.429,2.93-7.069    C196.022,445.363,194.952,442.785,193.092,440.924z" data-original="#000000" class="active-path" data-old_color="#000000" fill="#0072d4"/>
	</g>
</g><g>
	<g>
		<path d="M486.002,266.639c-14.335,0-25.998,11.662-25.998,25.998s11.663,25.998,25.998,25.998    c14.335,0,25.998-11.662,25.998-25.998S500.337,266.639,486.002,266.639z M486.002,298.637c-3.309,0-6-2.691-6-6    c0-3.309,2.691-6,6-6s6,2.691,6,6C492.001,295.946,489.311,298.637,486.002,298.637z" data-original="#000000" class="active-path" data-old_color="#000000" fill="#0072d4"/>
	</g>
</g><g>
	<g>
		<path d="M349.988,266.639c-14.335,0-25.998,11.662-25.998,25.998s11.662,25.998,25.998,25.998    c14.335,0,25.998-11.662,25.998-25.998S364.323,266.639,349.988,266.639z M349.988,298.637c-3.309,0-6-2.691-6-6    c0-3.309,2.691-6,6-6c3.309,0,6,2.691,6,6C355.988,295.946,353.297,298.637,349.988,298.637z" data-original="#000000" class="active-path" data-old_color="#000000" fill="#0072d4"/>
	</g>
</g><g>
	<g>
		<path d="M418.008,266.639c-14.335,0-25.998,11.662-25.998,25.998s11.663,25.998,25.998,25.998    c14.335,0,25.998-11.662,25.998-25.998S432.343,266.639,418.008,266.639z M418.008,298.637c-3.309,0-6-2.691-6-6    c0-3.309,2.691-6,6-6c3.309,0,6,2.691,6,6C424.007,295.946,421.316,298.637,418.008,298.637z" data-original="#000000" class="active-path" data-old_color="#000000" fill="#0072d4"/>
	</g>
</g><g>
	<g>
		<path d="M502.001,491.992H91.03c-9.373,0-16.999-7.625-16.999-16.999s7.625-16.999,16.999-16.999h56.496    c5.523,0,9.999-4.478,9.999-9.999s-4.477-9.999-9.999-9.999H91.03c-20.401,0-36.997,16.598-36.997,36.997    c0,20.4,16.597,36.997,36.997,36.997h410.971c5.523,0,9.999-4.478,9.999-9.999C512,496.47,507.523,491.992,502.001,491.992z" data-original="#000000" class="active-path" data-old_color="#000000" fill="#0072d4"/>
	</g>
</g><g>
	<g>
		<path d="M157.717,311.629l-38.72-66.329c-2.784-4.77-8.906-6.38-13.677-3.595c-4.77,2.784-6.379,8.906-3.595,13.676l38.72,66.329    c1.859,3.184,5.207,4.961,8.645,4.961c1.712,0,3.447-0.44,5.032-1.366C158.892,322.521,160.501,316.399,157.717,311.629z" data-original="#000000" class="active-path" data-old_color="#000000" fill="#0072d4"/>
	</g>
</g><g>
	<g>
		<path d="M99.335,211.189c-3.905-3.904-10.236-3.904-14.142,0l-0.779,0.779c-3.905,3.905-3.905,10.236,0,14.142    c1.953,1.952,4.512,2.929,7.07,2.929c2.559,0,5.119-0.977,7.07-2.929l0.779-0.779C103.24,221.425,103.24,215.094,99.335,211.189z" data-original="#000000" class="active-path" data-old_color="#000000" fill="#0072d4"/>
	</g>
</g></g> </svg>
